#!OML:ASF E:\acrobat2\Project_11_07_03\Capture day 1\Session 1\Acrobat.ASF
:FULLY-SPECIFIED
:DEGREES
130
root 10.8708 21.4334 16.1255 5.82891 0.668071 6.97004
lowerback -8.68593 -3.03257 -8.02374
upperback -1.77071 -3.25565 -1.15771
thorax 3.39797 -1.6894 2.90777
lowerneck 9.44665 -15.1804 -11.5533
upperneck -0.285155 -21.3388 11.3507
head 0.875753 -10.9185 5.10515
rclavicle -3.20323e-014 -3.91606e-014
rhumerus -37.0766 6.49525 -90.7745
rradius 25.264
rwrist 7.44497
rhand -6.30683 -41.906
rfingers 7.12502
rthumb 19.5374 -70.9443
lclavicle -3.20323e-014 -3.91606e-014
lhumerus -32.2532 4.90736 87.062
lradius 21.1884
lwrist 1.67796
lhand -0.100987 -14.3087
lfingers 7.12502
lthumb 25.4936 14.0059
rfemur 5.4469 6.88774 7.75545
rtibia -3.60643
rfoot -18.3351 -15.1512
rtoes 16.681
lfemur 1.64818 -0.671334 -23.1901
ltibia -0.138522
lfoot -11.8653 -4.73292
ltoes 10.1991
131
root 10.8708 21.4329 16.1275 5.82112 0.669105 6.98028
lowerback -8.68546 -3.04158 -8.04897
upperback -1.75526 -3.26441 -1.16
thorax 3.41612 -1.69494 2.91775
lowerneck 9.3975 -15.1666 -11.5334
upperneck -0.252427 -21.3156 11.3232
head 0.885326 -10.905 5.09067
rclavicle -8.40176e-015 -4.76089e-014
rhumerus -37.0583 6.51426 -90.7845
rradius 25.2669
rwrist 7.44241
rhand -6.3023 -41.9279
rfingers 7.12502
rthumb 19.5417 -70.9659
lclavicle -8.40176e-015 -4.76089e-014
lhumerus -32.2361 4.86603 87.0738
lradius 21.1934
lwrist 1.73915
lhand -0.0810824 -14.2993
lfingers 7.12502
lthumb 25.5127 14.0126
rfemur 5.45302 6.87332 7.74072
rtibia -3.58517
rfoot -18.3438 -15.1297
rtoes 16.7136
lfemur 1.66616 -0.66254 -23.1941
ltibia -0.142138
lfoot -11.8607 -4.74295
ltoes 10.4862
132
root 10.8714 21.4327 16.1298 5.80854 0.669368 6.9969
lowerback -8.68173 -3.05015 -8.07151
upperback -1.74112 -3.27307 -1.16674
thorax 3.43068 -1.70026 2.92181
lowerneck 9.36172 -15.1546 -11.5241
upperneck -0.224998 -21.2972 11.3219
head 0.89578 -10.8949 5.08573
rclavicle -1.89094e-014 -4.12478e-014
rhumerus -37.0481 6.53087 -90.7958
rradius 25.2693
rwrist 7.43622
rhand -6.30827 -41.933
rfingers 7.12502
rthumb 19.536 -70.9716
lclavicle -1.89094e-014 -4.12478e-014
lhumerus -32.2327 4.81643 87.0886
lradius 21.2107
lwrist 1.81146
lhand -0.0669409 -14.2778
lfingers 7.12502
lthumb 25.5263 14.0321
rfemur 5.47552 6.84836 7.71538
rtibia -3.58195
rfoot -18.3415 -15.1058
rtoes 16.6646
lfemur 1.697 -0.683119 -23.2166
ltibia -0.155142
lfoot -11.8723 -4.73335
ltoes 10.7932
133
root 10.8724 21.4327 16.1323 5.79196 0.669671 7.01535
lowerback -8.67595 -3.05556 -8.08579
upperback -1.7272 -3.27838 -1.17738
thorax 3.44283 -1.70373 2.91777
lowerneck 9.35257 -15.1464 -11.5473
upperneck -0.210571 -21.2894 11.3648
head 0.90766 -10.8917 5.09899
rclavicle 1.14022e-014 2.0276e-014
rhumerus -37.0471 6.54843 -90.8069
rradius 25.276
rwrist 7.41797
rhand -6.33474 -41.9163
rfingers 7.12502
rthumb 19.5105 -70.9574
lclavicle 1.14022e-014 2.0276e-014
lhumerus -32.2355 4.75802 87.1081
lradius 21.2316
lwrist 1.88555
lhand -0.0528913 -14.243
lfingers 7.12502
lthumb 25.5397 14.065
rfemur 5.51531 6.83103 7.68835
rtibia -3.60082
rfoot -18.331 -15.0922
rtoes 16.5491
lfemur 1.73882 -0.728902 -23.252
ltibia -0.177404
lfoot -11.8932 -4.70191
ltoes 11.0626
134
root 10.8735 21.4327 16.1347 5.77447 0.666692 7.02686
lowerback -8.66956 -3.05308 -8.08761
upperback -1.71306 -3.27434 -1.1903
thorax 3.45302 -1.70239 2.90569
lowerneck 9.36115 -15.1441 -11.5848
upperneck -0.21014 -21.2922 11.4286
head 0.917646 -10.8947 5.12129
rclavicle 7.32397e-015 -3.81667e-014
rhumerus -37.0487 6.55659 -90.8145
rradius 25.2818
rwrist 7.38922
rhand -6.38142 -41.8849
rfingers 7.12502
rthumb 19.4657 -70.9306
lclavicle 7.32397e-015 -3.81667e-014
lhumerus -32.2337 4.68631 87.1316
lradius 21.2429
lwrist 1.95393
lhand -0.0330786 -14.1997
lfingers 7.12502
lthumb 25.5587 14.1056
rfemur 5.56358 6.86489 7.67852
rtibia -3.63701
rfoot -18.3316 -15.1158
rtoes 16.4732
lfemur 1.78266 -0.788831 -23.2802
ltibia -0.203389
lfoot -11.9187 -4.65201
ltoes 11.2664
135
root 10.8741 21.4326 16.1368 5.76081 0.656117 7.02722
lowerback -8.66324 -3.04239 -8.08163
upperback -1.70151 -3.26031 -1.2022
thorax 3.45904 -1.69582 2.89174
lowerneck 9.37481 -15.1478 -11.6193
upperneck -0.213534 -21.3028 11.4954
head 0.926631 -10.9018 5.14422
rclavicle 1.01598e-014 -1.16289e-014
rhumerus -37.048 6.53679 -90.8131
rradius 25.28
rwrist 7.37221
rhand -6.42997 -41.8502
rfingers 7.12502
rthumb 19.419 -70.9005
lclavicle 1.01598e-014 -1.16289e-014
lhumerus -32.2275 4.59512 87.1609
lradius 21.2419
lwrist 2.02682
lhand -0.0140845 -14.157
lfingers 7.12502
lthumb 25.5769 14.1457
rfemur 5.60746 6.9629 7.69388
rtibia -3.68032
rfoot -18.3499 -15.185
rtoes 16.4725
lfemur 1.81679 -0.844376 -23.2876
ltibia -0.22361
lfoot -11.9453 -4.59515
ltoes 11.4092
136
root 10.874 21.4324 16.1387 5.75381 0.63787 7.01774
lowerback -8.65867 -3.02606 -8.0755
upperback -1.69286 -3.23891 -1.21018
thorax 3.4624 -1.68546 2.88277
lowerneck 9.39323 -15.1586 -11.6425
upperneck -0.226802 -21.3215 11.5473
head 0.930101 -10.9127 5.16223
rclavicle -3.73187e-014 -1.49089e-014
rhumerus -37.04 6.47852 -90.7969
rradius 25.2689
rwrist 7.38727
rhand -6.47208 -41.8127
rfingers 7.12502
rthumb 19.3785 -70.8671
lclavicle -3.73187e-014 -1.49089e-014
lhumerus -32.2169 4.50303 87.1907
lradius 21.2317
lwrist 2.09218
lhand -0.00440007 -14.1278
lfingers 7.12502
lthumb 25.5862 14.1736
rfemur 5.63888 7.11388 7.73153
rtibia -3.72247
rfoot -18.3871 -15.2958
rtoes 16.5303
lfemur 1.8351 -0.877678 -23.2721
ltibia -0.233715
lfoot -11.9678 -4.54211
ltoes 11.4542
137
root 10.8734 21.4323 16.14 5.75687 0.617677 6.99563
lowerback -8.65914 -3.0078 -8.0644
upperback -1.68795 -3.21536 -1.21139
thorax 3.46453 -1.67388 2.87826
lowerneck 9.4113 -15.1733 -11.6486
upperneck -0.246001 -21.3427 11.5787
head 0.928161 -10.9245 5.17276
rclavicle -7.3395e-015 -1.26228e-014
rhumerus -37.0207 6.38859 -90.7651
rradius 25.242
rwrist 7.43908
rhand -6.50742 -41.7732
rfingers 7.12502
rthumb 19.3445 -70.831
lclavicle -7.3395e-015 -1.26228e-014
lhumerus -32.2023 4.4319 87.216
lradius 21.2129
lwrist 2.12969
lhand -0.0194411 -14.1266
lfingers 7.12502
lthumb 25.5718 14.1768
rfemur 5.64724 7.26802 7.78511
rtibia -3.74789
rfoot -18.43 -15.4102
rtoes 16.6577
lfemur 1.83358 -0.884908 -23.233
ltibia -0.233265
lfoot -11.9843 -4.5034
ltoes 11.4334
138
root 10.8733 21.4325 16.1408 5.77039 0.604801 6.96477
lowerback -8.66447 -2.99491 -8.04278
upperback -1.68725 -3.19988 -1.20599
thorax 3.46567 -1.66609 2.87365
lowerneck 9.4244 -15.1881 -11.641
upperneck -0.266474 -21.3616 11.584
head 0.922056 -10.9344 5.17437
rclavicle -7.51033e-015 1.21259e-014
rhumerus -36.9878 6.29103 -90.7239
rradius 25.1961
rwrist 7.52365
rhand -6.52472 -41.7371
rfingers 7.12502
rthumb 19.3279 -70.7966
lclavicle -7.51033e-015 1.21259e-014
lhumerus -32.1878 4.3965 87.2342
lradius 21.1897
lwrist 2.13556
lhand -0.0681204 -14.1536
lfingers 7.12502
lthumb 25.5251 14.1565
rfemur 5.62979 7.3429 7.83339
rtibia -3.74629
rfoot -18.4451 -15.4676
rtoes 16.8091
lfemur 1.81506 -0.871412 -23.1856
ltibia -0.226301
lfoot -11.9899 -4.48733
ltoes 11.4238
